<?xml version="1.0" standalone="no"?>
<!DOCTYPE svg PUBLIC "-//W3C//DTD SVG 20010904//EN"
 "http://www.w3.org/TR/2001/REC-SVG-20010904/DTD/svg10.dtd">
<svg version="1.0" xmlns="http://www.w3.org/2000/svg"
 width="796.000000pt" height="1024.000000pt" viewBox="0 0 796.000000 1024.000000"
 preserveAspectRatio="xMidYMid meet">

<g transform="translate(0.000000,1024.000000) scale(0.100000,-0.100000)"
fill="#000000" stroke="none">
<path d="M3378 9363 c6 -2 18 -2 25 0 6 3 1 5 -13 5 -14 0 -19 -2 -12 -5z"/>
<path d="M3260 9350 c-16 -5 -2 -6 35 -3 33 3 62 7 64 9 8 7 -74 2 -99 -6z"/>
<path d="M3070 9310 c-396 -88 -758 -228 -1103 -427 -149 -86 -227 -140 -227
-157 0 -6 -13 -23 -30 -38 -37 -33 -38 -49 -1 -69 40 -23 56 -74 39 -125 -10
-31 -22 -44 -59 -62 -41 -20 -48 -29 -58 -66 -10 -42 -34 -65 -46 -46 -3 5 -1
26 4 47 10 35 9 39 -20 63 -64 53 -43 163 35 191 24 9 36 19 36 31 0 16 -6 15
-47 -13 -72 -50 -246 -201 -377 -329 -262 -254 -465 -518 -660 -858 -42 -74
-76 -135 -76 -137 0 -1 -32 -69 -71 -150 -65 -136 -109 -238 -109 -251 0 -3 9
-2 20 1 16 5 20 2 20 -19 0 -14 13 -37 30 -54 34 -34 37 -42 15 -42 -8 0 -15
-7 -15 -15 0 -25 50 -65 81 -65 25 0 29 -4 29 -26 0 -26 1 -26 50 -22 l50 5
20 -54 c11 -29 20 -61 20 -71 0 -9 5 -24 10 -32 7 -11 10 -6 10 20 l0 34 40
-42 c22 -22 40 -47 40 -55 0 -16 62 -37 89 -30 20 5 27 24 41 110 5 28 17 61
27 72 10 12 23 36 29 54 9 26 17 33 42 35 44 4 49 -15 19 -80 -13 -29 -29 -69
-36 -89 -6 -20 -21 -46 -33 -59 -16 -17 -22 -36 -22 -71 0 -27 -4 -45 -9 -42
-11 7 -27 -16 -27 -40 0 -15 3 -16 20 -7 18 9 20 8 20 -14 0 -14 6 -29 14 -33
22 -12 66 -81 67 -106 3 -46 17 82 18 163 1 77 12 123 25 109 5 -5 13 -138 15
-248 1 -33 4 -42 15 -38 10 4 13 1 9 -9 -6 -17 28 -19 59 -3 18 10 20 9 16 -9
-5 -16 -1 -22 16 -24 16 -2 21 -9 19 -33 0 -17 1 -24 4 -17 2 6 14 12 26 12
l22 0 -21 -18 c-24 -19 -49 -62 -36 -62 4 0 13 5 19 11 8 8 13 8 17 0 4 -6 2
-11 -4 -11 -6 0 -3 -11 7 -25 14 -18 27 -24 56 -25 30 0 37 -4 37 -20 0 -11 9
-29 21 -41 13 -13 19 -28 15 -42 -3 -12 1 -29 11 -39 15 -17 15 -19 -1 -37
-18 -20 -39 -91 -27 -91 3 0 14 22 24 50 18 51 67 101 105 107 12 1 40 9 64
18 24 8 53 15 65 15 13 0 30 11 39 25 18 28 41 32 58 11 9 -12 23 -11 91 3 44
10 87 20 95 23 8 3 78 20 155 37 77 17 154 35 170 40 17 5 90 24 163 41 72 18
132 36 132 41 0 5 -7 9 -15 9 -21 0 -29 43 -15 86 11 32 10 38 -8 56 -16 16
-23 18 -40 9 -57 -30 -112 12 -112 86 0 38 -5 50 -32 75 -45 42 -66 48 -174
48 -75 0 -94 -3 -94 -14 0 -8 13 -23 30 -33 39 -23 41 -69 5 -103 -20 -18 -31
-22 -62 -17 -75 12 -98 89 -35 116 24 11 32 21 30 35 -5 33 -75 27 -103 -8
-16 -20 -24 -23 -33 -14 -7 7 -12 18 -12 26 0 13 -53 14 -371 10 l-370 -5 3
26 c2 16 16 34 38 49 69 46 81 58 125 123 73 109 159 323 235 589 74 258 134
373 237 454 32 26 84 56 116 68 47 17 56 24 52 39 -10 32 4 59 30 59 18 0 26
-7 31 -24 3 -14 3 -29 0 -34 -3 -5 24 -12 62 -14 182 -14 310 -126 400 -347
19 -47 36 -87 37 -89 8 -9 55 32 51 43 -2 7 17 28 42 46 35 25 42 35 29 37
-31 6 -18 34 45 93 58 54 61 60 44 72 -17 12 -17 15 -2 29 9 9 16 24 16 32 0
9 8 16 19 16 22 0 36 26 18 34 -7 2 0 5 16 5 15 1 27 6 27 11 0 6 8 10 17 8
13 -2 19 8 25 39 9 44 13 46 81 58 27 4 37 11 37 24 0 11 9 21 21 24 12 3 18
10 15 16 -4 6 5 13 19 17 14 3 25 10 25 16 0 5 4 7 9 3 10 -5 24 11 27 30 1 6
4 33 8 60 8 62 30 128 45 133 14 5 14 -31 0 -45 -7 -7 -8 -17 -3 -25 5 -7 9
-20 9 -28 0 -8 8 -16 18 -18 16 -3 18 4 16 73 -1 42 2 80 7 84 18 16 102 19
124 4 17 -12 23 -12 42 1 12 9 37 16 55 16 20 0 33 5 33 13 0 9 2 9 8 1 13
-21 82 -22 82 -1 0 6 14 21 30 32 16 11 30 25 30 31 0 6 7 17 15 24 13 11 16
8 21 -19 9 -42 24 -29 24 20 0 32 3 39 20 39 11 0 20 -7 20 -16 0 -8 5 -12 10
-9 19 12 10 38 -27 71 -39 36 -58 42 -66 22 -2 -7 -8 -9 -13 -5 -5 4 -2 12 6
17 12 7 12 13 0 37 -8 15 -16 31 -18 36 -2 4 4 7 12 7 9 0 16 -8 16 -18 0 -10
9 -25 20 -35 17 -14 20 -14 20 -2 0 8 -4 15 -10 15 -5 0 -10 7 -10 16 0 8 -6
22 -14 30 -17 16 -46 19 -46 4 0 -5 -9 -10 -20 -10 -23 0 -27 15 -5 24 25 9
18 52 -12 76 -31 24 -79 21 -99 -5 -16 -21 -34 -19 -34 5 0 11 4 20 9 20 28 0
16 64 -15 83 -8 4 -14 15 -14 22 0 8 -9 15 -20 15 -18 0 -20 7 -20 56 0 49 -3
58 -31 84 -18 16 -40 52 -50 81 -35 100 -78 136 -71 59 3 -26 0 -40 -8 -40 -7
0 -11 16 -10 43 4 99 1 117 -20 117 -16 0 -20 -7 -20 -30 0 -16 -4 -30 -10
-30 -5 0 -10 16 -10 35 0 30 -3 35 -22 35 -36 0 -68 11 -62 21 3 5 -9 9 -27 9
-73 0 18 18 99 19 20 1 32 6 32 15 0 7 14 16 31 20 43 8 51 8 44 -4 -3 -5 -1
-10 4 -10 6 0 11 7 11 15 0 8 14 17 38 21 20 4 44 10 52 15 27 15 -18 9 -150
-21z m130 -440 c0 -5 -2 -10 -4 -10 -3 0 -8 5 -11 10 -3 6 -1 10 4 10 6 0 11
-4 11 -10z m-1139 -23 c-13 -13 -26 -3 -16 12 3 6 11 8 17 5 6 -4 6 -10 -1
-17z m1137 -37 c3 -35 -11 -53 -36 -46 -41 13 -31 80 11 74 15 -2 23 -11 25
-28z m-1150 -107 c-4 -22 -22 -20 -26 1 -2 10 3 16 13 16 10 0 15 -7 13 -17z
m157 -33 c-5 -8 -11 -8 -17 -2 -6 6 -7 16 -3 22 5 8 11 8 17 2 6 -6 7 -16 3
-22z m1235 -26 c0 -2 -15 -4 -32 -3 -27 0 -29 2 -13 8 18 8 45 4 45 -5z m-186
-68 c-6 -16 -24 -23 -24 -8 0 10 22 33 27 28 2 -2 1 -11 -3 -20z m-34 -20 c0
-3 -4 -8 -10 -11 -5 -3 -10 -1 -10 4 0 6 5 11 10 11 6 0 10 -2 10 -4z m140
-260 c0 -2 -11 -6 -25 -8 -13 -3 -22 -1 -19 3 5 9 44 13 44 5z m-1869 -178
c12 -18 24 -35 26 -37 2 -3 16 10 31 29 20 24 34 32 46 27 15 -6 14 -12 -13
-51 -17 -25 -31 -47 -31 -51 0 -4 14 -26 30 -50 17 -24 30 -48 30 -54 0 -24
-36 -9 -59 24 -13 19 -27 35 -31 35 -5 0 -18 -16 -30 -35 -13 -20 -30 -35 -41
-35 -26 0 -24 13 11 62 37 50 37 62 4 105 -24 32 -27 63 -5 63 5 0 20 -15 32
-32z m1240 -9 c27 -22 49 -44 49 -48 0 -8 -94 -81 -104 -81 -3 0 -6 9 -6 19 0
47 -8 51 -100 51 -49 0 -101 5 -117 12 l-28 11 30 7 c17 4 69 8 118 9 84 1 87
2 87 24 0 22 7 37 18 37 2 0 26 -18 53 -41z m-1253 -406 c6 -10 13 -42 17 -71
8 -62 15 -59 49 23 26 64 53 81 49 31 -3 -42 -91 -220 -123 -251 -18 -17 -36
-25 -51 -23 -36 5 -36 34 0 46 16 6 34 19 39 29 13 24 -5 163 -24 184 -8 8
-14 23 -14 32 0 23 46 22 58 0z m-343 -87 c0 -22 -14 -29 -34 -17 -19 12 -6
43 16 39 10 -2 18 -12 18 -22z m-747 -591 c-3 -3 -9 2 -12 12 -6 14 -5 15 5 6
7 -7 10 -15 7 -18z m809 -122 c9 -24 23 -33 54 -33 15 0 33 -7 40 -16 12 -15
11 -16 -6 -11 -56 15 -78 17 -90 7 -8 -6 -26 -10 -42 -8 -29 3 -42 31 -29 64
8 21 65 18 73 -3z m-377 -373 c0 -5 -4 -10 -10 -10 -5 0 -10 5 -10 10 0 6 5
10 10 10 6 0 10 -4 10 -10z m605 -200 c3 -5 1 -10 -4 -10 -6 0 -11 5 -11 10 0
6 2 10 4 10 3 0 8 -4 11 -10z m39 -74 c26 -53 14 -70 -53 -74 -50 -3 -51 -2
-51 25 0 15 9 43 20 61 28 45 58 40 84 -12z m355 -55 c40 -40 44 -146 8 -191
-28 -35 -80 -41 -153 -16 -63 22 -72 147 -15 198 26 23 40 28 86 28 41 0 60
-5 74 -19z m389 -48 c-2 -10 -13 -19 -26 -21 -17 -3 -22 2 -22 17 0 16 6 21
26 21 19 0 25 -5 22 -17z m-1008 -9 c0 -9 -7 -14 -17 -12 -25 5 -28 28 -4 28
12 0 21 -6 21 -16z m181 -295 c6 -12 7 -19 1 -15 -5 3 -12 -4 -16 -16 -4 -19
-7 -20 -18 -9 -10 11 -10 14 0 18 6 3 12 13 12 24 0 25 7 24 21 -2z"/>
<path d="M3176 9301 c-4 -7 -5 -15 -2 -18 9 -9 19 4 14 18 -4 11 -6 11 -12 0z"/>
<path d="M3345 8790 c7 -12 32 -13 39 -2 2 4 -7 9 -20 10 -15 1 -22 -2 -19 -8z"/>
<path d="M1596 8574 c-22 -21 -25 -88 -5 -108 15 -16 26 5 33 67 6 59 0 69
-28 41z"/>
<path d="M1665 8543 c-3 -27 -8 -56 -10 -65 -5 -29 12 -30 34 -2 23 29 28 83
9 102 -20 20 -27 14 -33 -35z"/>
<path d="M3577 8493 c-14 -14 -6 -20 19 -15 19 3 22 7 12 13 -16 11 -23 11
-31 2z"/>
<path d="M3586 8335 c-3 -8 -1 -15 4 -15 6 0 10 7 10 15 0 8 -2 15 -4 15 -2 0
-6 -7 -10 -15z"/>
<path d="M3350 8249 c0 -5 4 -9 8 -9 5 0 14 -10 19 -22 10 -23 10 -23 10 4 0
17 -6 28 -18 31 -11 3 -19 1 -19 -4z"/>
<path d="M3158 8193 c-7 -9 -13 -37 -13 -64 0 -48 1 -49 30 -49 l30 0 -3 59
c-4 63 -20 83 -44 54z"/>
<path d="M3277 8193 c-4 -3 -7 -16 -7 -28 0 -14 6 -21 20 -21 15 0 20 7 20 28
0 26 -17 37 -33 21z"/>
<path d="M3302 8110 c0 -14 2 -19 5 -12 2 6 2 18 0 25 -3 6 -5 1 -5 -13z"/>
<path d="M4460 8081 c0 -6 6 -11 13 -11 8 0 8 -3 -2 -9 -12 -8 -12 -12 -2 -25
8 -9 22 -16 33 -16 10 0 21 -8 25 -17 3 -10 15 -26 27 -35 19 -16 19 -18 3
-18 -28 0 -15 -23 22 -41 33 -15 33 -15 9 -26 l-23 -11 28 -13 c21 -9 30 -10
39 -1 17 17 53 15 68 -3 14 -17 6 -65 -13 -78 -9 -6 -9 -10 0 -14 7 -2 23 -13
35 -23 l23 -19 -25 -1 c-24 0 -23 -1 10 -23 26 -16 30 -23 17 -25 -44 -9 -1
-32 59 -32 39 0 57 -20 49 -53 -10 -36 -29 -40 -78 -13 -73 40 -173 75 -241
85 -63 9 -68 8 -92 -14 -14 -13 -44 -27 -67 -30 -43 -7 -153 -60 -197 -95
l-25 -20 37 4 c21 3 42 7 47 10 5 3 11 1 13 -5 3 -9 10 -9 27 0 30 17 39 6 16
-19 -27 -30 -15 -32 50 -10 69 24 71 24 55 6 -7 -9 -8 -21 -3 -30 7 -14 17
-12 72 14 34 17 66 30 69 30 4 0 -11 -16 -33 -35 -43 -37 -34 -43 30 -20 49
18 48 18 39 4 -5 -9 1 -10 22 -5 l28 7 -19 -22 -20 -22 48 6 c45 6 47 6 37
-13 -6 -11 -23 -22 -38 -26 -133 -28 -323 -142 -363 -217 -10 -18 -9 -19 10
-14 14 3 21 0 21 -10 0 -11 8 -8 31 11 34 29 54 34 45 11 -12 -31 19 -13 68
40 28 30 55 55 59 55 5 0 -3 -21 -18 -46 -15 -25 -25 -48 -22 -50 10 -10 55
16 92 55 39 40 67 53 62 29 -5 -28 41 -19 67 13 l28 32 -4 -34 c-3 -30 -12
-40 -88 -90 -100 -67 -146 -112 -194 -193 -46 -77 -46 -89 0 -80 30 6 36 4 41
-15 6 -25 21 -28 30 -5 3 8 12 13 19 10 9 -3 21 9 34 35 23 45 40 43 40 -4 1
-27 2 -29 11 -14 5 9 13 36 17 60 8 42 29 51 24 10 -5 -36 15 -27 22 10 4 20
9 27 14 20 11 -18 29 -2 37 35 5 27 9 31 21 21 11 -9 14 -7 14 12 0 13 5 31
10 39 8 13 11 12 24 -5 14 -19 15 -17 16 28 0 42 5 54 34 83 40 40 85 45 117
13 24 -24 29 -24 159 24 52 19 109 37 125 41 50 12 15 -9 -55 -33 -92 -32
-173 -64 -186 -73 -6 -5 -14 -26 -18 -48 -7 -42 -35 -70 -72 -70 -16 0 -27
-12 -43 -49 -11 -27 -21 -53 -21 -58 0 -4 22 -15 48 -24 26 -9 55 -20 65 -24
13 -6 17 -2 17 18 0 14 5 29 10 32 6 3 10 21 10 38 0 61 17 64 34 7 9 -30 16
-66 16 -81 0 -34 37 -60 51 -38 11 17 11 23 9 142 -1 64 2 97 9 97 6 0 11 -6
11 -14 0 -26 39 -101 59 -114 12 -7 21 -16 21 -21 0 -5 13 -23 29 -39 39 -39
47 -73 27 -113 -9 -18 -14 -34 -12 -36 8 -8 196 41 196 51 0 1 -9 19 -20 41
-11 22 -20 50 -20 62 0 13 -4 23 -10 23 -5 0 -10 4 -10 10 0 5 -19 37 -43 72
-28 41 -44 75 -45 98 l-2 35 17 -32 c19 -37 30 -41 36 -15 3 13 7 10 17 -13
l13 -30 7 25 7 25 12 -28 c6 -16 16 -25 21 -22 6 3 13 -1 16 -9 8 -22 34 -20
34 2 1 12 5 9 16 -10 15 -28 34 -37 34 -17 0 20 19 -1 41 -46 31 -62 49 -59
49 8 l1 52 13 -31 c8 -17 17 -46 21 -65 12 -57 43 -73 116 -60 3 1 18 12 33
26 l27 25 -20 38 c-11 22 -32 53 -46 70 -14 16 -25 34 -25 39 0 20 -114 123
-136 123 -13 0 -28 8 -33 18 -6 11 -39 28 -82 42 -57 18 -85 21 -133 16 -49
-5 -57 -4 -41 6 11 6 23 16 26 21 4 5 14 7 23 4 19 -8 33 12 16 23 -7 4 8 6
33 3 39 -5 48 -3 53 13 14 43 27 60 54 73 38 16 81 7 108 -23 14 -17 27 -22
46 -19 35 7 33 17 -9 43 -19 12 -35 23 -35 26 0 4 32 -7 45 -16 6 -4 21 -10
35 -12 14 -3 34 -9 45 -12 18 -7 18 -6 3 4 -27 17 -22 31 8 20 36 -14 39 -13
19 10 -20 22 -7 27 26 10 31 -17 22 3 -14 28 -28 21 -29 23 -7 17 14 -4 27
-11 30 -14 3 -4 29 -13 58 -20 49 -12 54 -12 66 5 8 10 12 24 9 31 -3 7 0 13
6 13 6 0 11 7 11 15 0 8 -6 15 -13 15 -7 0 -29 9 -50 20 -20 11 -43 20 -51 20
-8 0 -16 7 -20 15 -3 8 -18 15 -34 15 -15 0 -33 5 -39 11 -6 6 -38 13 -72 16
-33 3 -58 10 -55 14 3 5 2 9 -3 10 -4 0 -16 2 -25 4 -52 10 -217 -61 -300
-128 l-54 -44 11 41 c6 23 18 55 28 73 22 41 21 43 -4 43 -21 0 -21 1 -4 28 9
15 45 53 78 85 47 43 57 57 42 57 -19 1 -19 2 3 19 12 11 22 25 23 33 0 7 29
38 64 68 66 57 76 70 50 70 -8 0 -15 7 -15 15 0 8 -6 13 -12 11 -7 -3 -26 -7
-42 -11 -16 -3 -55 -31 -87 -62 -54 -51 -59 -54 -59 -32 -1 22 -4 21 -39 -19
-40 -46 -91 -138 -91 -165 0 -9 -8 -21 -18 -26 -15 -8 -25 -31 -60 -146 -11
-35 -14 -28 -31 65 -9 47 -19 71 -36 85 -13 11 -25 34 -27 50 -2 22 -8 30 -23
30 -13 0 -22 10 -29 33 -7 25 -14 32 -27 29 -10 -3 -20 1 -23 9 -3 8 -13 14
-23 14 -10 0 -33 21 -51 45 -35 46 -118 108 -136 102 -6 -2 -10 -12 -8 -22 3
-14 -1 -16 -15 -10 -10 4 -31 10 -48 12 -16 3 -44 11 -61 18 -44 20 -114 30
-114 16z m478 -368 c-3 -32 -41 -45 -51 -19 -10 26 3 46 30 46 21 0 24 -4 21
-27z m-461 -89 c-3 -3 -12 -4 -19 -1 -8 3 -5 6 6 6 11 1 17 -2 13 -5z m173
-33 c12 -23 5 -47 -17 -55 -21 -9 -43 12 -43 39 0 36 43 47 60 16z m366 -28
c-10 -10 -19 5 -10 18 6 11 8 11 12 0 2 -7 1 -15 -2 -18z m-51 -73 c3 -5 1
-10 -4 -10 -6 0 -11 5 -11 10 0 6 2 10 4 10 3 0 8 -4 11 -10z m181 -37 c8 -32
-6 -57 -35 -61 -28 -4 -51 14 -51 42 0 30 18 46 52 46 22 0 29 -6 34 -27z
m-426 -52 c0 -5 -9 -11 -20 -14 -22 -6 -28 8 -7 16 19 8 27 8 27 -2z m100 -11
c0 -5 -7 -10 -16 -10 -8 0 -12 5 -9 10 3 6 10 10 16 10 5 0 9 -4 9 -10z m188
-138 c2 -7 -6 -12 -17 -12 -21 0 -27 11 -14 24 9 9 26 2 31 -12z m-264 -7 c-4
-8 -11 -15 -16 -15 -6 0 -5 6 2 15 7 8 14 15 16 15 2 0 1 -7 -2 -15z m506 -79
c0 -2 3 -11 6 -20 5 -13 -1 -16 -25 -16 -24 0 -31 4 -31 20 0 15 7 20 25 20
14 0 25 -2 25 -4z m-60 -110 c-14 -14 -24 0 -16 21 6 15 8 15 16 3 6 -9 5 -19
0 -24z"/>
<path d="M1863 7735 c-76 -21 -129 -50 -178 -100 -81 -81 -120 -166 -205 -450
-107 -358 -178 -527 -261 -618 -22 -23 -39 -45 -39 -49 0 -9 631 -11 654 -2 9
3 13 10 10 15 -3 5 2 12 10 15 10 4 16 18 16 38 0 44 55 98 96 94 29 -3 29 -3
35 62 17 192 152 423 322 549 l55 40 -28 77 c-36 96 -83 173 -140 231 -48 48
-141 97 -202 106 -32 5 -37 3 -40 -15 -4 -31 -26 -33 -34 -4 -3 14 -9 26 -13
25 -3 0 -30 -7 -58 -14z m99 -129 c6 -29 -5 -51 -21 -42 -12 8 -15 49 -4 59
12 13 21 7 25 -17z m3 -171 c0 -20 -6 -31 -17 -33 -15 -3 -18 4 -18 33 0 29 3
36 18 33 11 -2 17 -13 17 -33z m104 16 c14 -9 9 -41 -6 -41 -4 0 -13 11 -20
25 -12 27 -2 33 26 16z m-109 -170 c0 -17 -4 -33 -10 -36 -11 -7 -25 39 -15
54 12 21 25 11 25 -18z m-370 -91 c0 -5 -4 -10 -10 -10 -5 0 -10 5 -10 10 0 6
5 10 10 10 6 0 10 -4 10 -10z m370 -76 c0 -45 -24 -42 -28 4 -2 24 1 32 12 32
12 0 16 -10 16 -36z m0 -154 c0 -29 -4 -40 -15 -40 -10 0 -15 10 -15 33 0 19
3 37 7 40 15 16 23 5 23 -33z m5 -171 c0 -24 -5 -34 -15 -34 -16 0 -25 37 -16
62 10 26 31 8 31 -28z m-291 -20 c-3 -5 -10 -7 -15 -3 -5 3 -7 10 -3 15 3 5
10 7 15 3 5 -3 7 -10 3 -15z m-134 -20 c0 -5 -7 -9 -15 -9 -15 0 -20 12 -9 23
8 8 24 -1 24 -14z m105 -39 c3 -5 15 -10 27 -10 11 0 31 -9 45 -20 24 -19 24
-20 5 -20 -11 0 -27 7 -36 15 -8 8 -21 15 -29 15 -8 0 -20 7 -27 15 -8 9 -9
15 -2 15 6 0 14 -4 17 -10z"/>
<path d="M2437 7314 c-4 -4 -4 -10 -2 -14 6 -10 45 0 45 11 0 10 -33 12 -43 3z"/>
<path d="M2340 7260 c-129 -109 -175 -163 -235 -276 -27 -50 -34 -74 -30 -96
5 -21 3 -28 -9 -28 -22 0 -38 -70 -38 -160 0 -109 0 -107 28 -114 14 -4 39
-17 55 -28 19 -14 41 -21 63 -20 19 1 37 -2 41 -8 3 -5 14 -10 23 -9 11 0 12
3 5 6 -7 2 -13 9 -13 15 0 6 7 8 15 4 15 -5 19 4 16 36 -1 10 4 27 12 39 20
28 33 5 14 -24 -18 -28 -12 -53 9 -36 12 10 13 9 8 -5 -3 -9 -1 -16 5 -16 6 0
11 -6 11 -14 0 -18 31 -26 103 -26 54 0 57 1 57 25 0 14 3 25 8 25 47 2 188
14 191 16 14 12 -22 19 -107 19 l-96 0 -16 30 c-8 16 -43 77 -77 136 -64 107
-74 133 -49 123 8 -3 16 4 20 18 7 21 8 20 25 -16 l17 -40 16 23 15 22 20 -31
c17 -27 21 -29 27 -15 6 17 8 17 26 0 11 -10 20 -23 20 -30 0 -6 7 -20 16 -31
14 -18 15 -16 9 25 -8 60 -64 201 -80 201 -7 0 -18 7 -25 15 -10 13 -9 15 10
15 15 0 20 5 17 14 -3 8 -11 33 -17 55 -6 22 -20 45 -31 51 -11 6 -17 15 -14
20 6 10 -13 100 -24 112 -3 4 -22 -6 -41 -22z m-84 -646 c-4 -9 -9 -15 -11
-12 -3 3 -3 13 1 22 4 9 9 15 11 12 3 -3 3 -13 -1 -22z"/>
<path d="M2450 7251 c0 -6 5 -13 10 -16 6 -3 10 1 10 9 0 9 -4 16 -10 16 -5 0
-10 -4 -10 -9z"/>
<path d="M2547 7196 c-33 -7 -63 -19 -67 -27 -10 -15 -4 -45 17 -96 12 -30 16
-32 50 -28 20 2 40 10 44 17 7 10 15 10 41 -1 18 -7 42 -14 53 -15 11 0 26 -5
34 -10 10 -6 12 -6 7 2 -10 17 6 15 30 -3 10 -8 28 -14 39 -15 17 0 14 6 -18
36 -21 20 -36 38 -33 41 2 3 36 -14 74 -36 39 -23 75 -41 81 -41 14 0 14 17 1
25 -26 16 -5 23 31 10 23 -8 51 -15 63 -15 20 1 20 1 -4 21 -14 11 -35 29 -48
40 -34 29 -90 56 -147 71 -27 7 -53 17 -57 22 -11 15 -127 17 -191 2z"/>
<path d="M6215 6961 c-44 -9 -337 -82 -652 -160 -419 -105 -577 -148 -593
-163 -15 -14 -30 -18 -48 -15 -29 6 -657 -145 -703 -169 -49 -25 -52 -48 -44
-373 8 -345 20 -309 -106 -335 -49 -11 -75 -12 -79 -5 -4 5 -10 129 -13 275
-10 375 -11 376 -255 315 -64 -17 -195 -48 -290 -71 -211 -49 -243 -64 -267
-122 -15 -37 -16 -65 -11 -198 3 -85 8 -249 11 -365 9 -368 25 -915 31 -1082
3 -96 2 -163 -4 -163 -5 0 -21 22 -35 49 -23 42 -27 61 -27 137 -1 235 -28
339 -112 427 l-39 41 21 26 c38 48 80 125 98 180 14 47 17 90 14 290 -3 306
-21 381 -115 471 -50 49 -93 72 -174 93 -110 29 -181 21 -503 -58 -80 -19
-306 -74 -503 -121 -197 -47 -370 -91 -383 -97 -13 -6 -31 -23 -41 -37 -20
-31 -20 -65 2 -681 9 -228 22 -603 30 -832 15 -462 16 -467 80 -488 31 -10 59
-5 257 45 123 31 265 65 317 76 52 12 106 28 119 37 47 31 50 54 44 353 l-5
277 44 9 c24 6 47 8 50 7 3 -2 9 -110 13 -241 6 -216 9 -240 28 -275 37 -66
51 -66 353 6 447 106 490 118 517 137 18 12 36 17 55 13 26 -5 588 130 656
157 15 7 37 25 48 41 21 28 21 38 18 331 l-4 301 93 21 c54 13 95 18 98 13 3
-5 9 -130 14 -279 7 -274 9 -283 49 -317 23 -18 85 -15 196 12 497 121 528
130 553 151 21 18 31 21 48 13 17 -8 74 3 245 45 123 31 307 76 409 101 102
25 298 73 435 106 275 68 370 102 443 160 57 45 123 136 151 207 38 97 42 156
30 400 -12 257 -23 300 -87 353 l-36 30 32 67 c51 110 55 137 47 352 -8 207
-19 273 -62 360 -74 146 -251 209 -458 162z m268 -99 c131 -59 172 -185 165
-506 -3 -151 -5 -164 -30 -211 -14 -27 -45 -71 -67 -97 l-42 -47 36 -15 c61
-26 97 -57 118 -105 19 -42 21 -66 21 -311 l1 -265 -29 -60 c-37 -75 -114
-153 -186 -188 -77 -37 -1357 -355 -1370 -340 -4 4 -13 161 -19 348 -7 187
-18 502 -27 700 -8 198 -16 461 -17 584 l-2 225 235 58 c129 32 336 82 460
113 124 30 268 66 320 80 256 69 343 77 433 37z m-1578 -344 c2 -7 9 -184 15
-393 10 -367 21 -697 39 -1200 5 -132 5 -244 1 -248 -4 -5 -43 -17 -86 -27
-44 -10 -178 -43 -299 -74 -121 -31 -227 -56 -236 -56 -22 0 -26 52 -35 394
l-6 248 -45 -6 c-59 -8 -326 -75 -334 -84 -4 -4 -2 -150 4 -325 5 -175 7 -320
4 -323 -3 -3 -38 -14 -79 -24 -40 -10 -172 -44 -294 -74 -121 -31 -227 -56
-236 -56 -14 0 -17 29 -22 213 -4 116 -11 322 -17 457 -5 135 -16 452 -24 705
-11 377 -12 462 -1 470 16 12 615 159 622 153 2 -3 9 -151 14 -328 6 -178 11
-325 13 -326 3 -3 249 52 336 76 l43 11 -6 77 c-3 42 -9 192 -12 333 -5 194
-4 258 5 263 12 8 596 154 619 155 7 1 14 -5 17 -11z m-2048 -577 c70 -31 128
-95 147 -163 9 -34 17 -128 21 -263 8 -232 -1 -296 -50 -379 -25 -42 -132
-156 -147 -156 -23 0 -2 -23 42 -45 72 -36 115 -78 139 -136 19 -42 23 -76 28
-212 7 -189 22 -245 86 -314 22 -24 38 -45 36 -47 -4 -4 -163 -42 -547 -132
-84 -20 -158 -34 -165 -31 -11 4 -15 60 -20 255 -6 263 -9 279 -55 303 -19 11
-39 10 -115 -5 -51 -11 -98 -21 -105 -24 -11 -4 -12 -62 -6 -318 l7 -313 -24
-5 c-13 -3 -151 -35 -307 -73 -211 -50 -285 -64 -291 -55 -4 6 -8 69 -9 139
-2 71 -7 254 -12 408 -16 450 -29 833 -36 1081 l-7 231 159 38 c87 20 276 66
419 101 556 136 594 144 680 140 56 -2 96 -10 132 -25z"/>
<path d="M5822 6281 c-84 -21 -155 -41 -158 -44 -8 -7 6 -207 14 -207 33 0
310 77 320 88 7 10 12 49 12 109 0 82 -2 93 -17 92 -10 0 -87 -18 -171 -38z
m98 -84 c0 -15 -49 -32 -124 -43 -79 -11 -52 17 35 37 94 22 89 21 89 6z"/>
<path d="M6005 5613 c-64 -14 -283 -65 -297 -70 -16 -4 -18 -18 -18 -104 0
-96 1 -99 23 -98 12 0 94 19 182 42 l160 42 3 75 c2 41 0 85 -3 97 -5 23 -12
25 -50 16z m-45 -112 c0 -10 -167 -47 -176 -39 -2 3 30 15 73 26 91 23 103 25
103 13z"/>
<path d="M2265 5384 c-55 -13 -110 -26 -122 -29 -22 -5 -23 -9 -23 -136 0
-102 3 -131 14 -135 19 -7 233 41 252 57 11 9 14 36 13 113 -1 105 -8 148 -24
152 -6 1 -55 -8 -110 -22z m43 -129 c4 -46 -1 -52 -55 -61 l-43 -7 0 46 c0 44
1 45 38 55 51 14 57 11 60 -33z"/>
<path d="M2540 6962 c0 -17 48 -149 68 -189 22 -42 42 -63 42 -44 0 6 5 11 10
11 6 0 10 -8 10 -18 0 -10 14 -31 30 -47 l30 -29 0 37 c0 25 6 39 18 46 10 5
24 21 31 34 13 24 11 28 -35 72 -71 68 -204 151 -204 127z"/>
<path d="M4821 6902 c-14 -26 -41 -165 -41 -211 l0 -40 48 14 c26 8 59 15 75
15 31 0 33 9 11 51 -20 40 -10 49 21 19 l25 -24 -6 35 c-4 19 -15 43 -25 55
-20 21 -26 64 -9 64 5 0 14 -8 19 -17 10 -16 10 -16 11 3 0 15 -12 24 -47 37
-60 21 -70 21 -82 -1z"/>
<path d="M320 6900 c0 -5 -6 -7 -14 -4 -10 4 -19 -10 -31 -48 -9 -29 -20 -61
-26 -70 -5 -10 -9 -26 -8 -35 0 -10 9 -1 20 22 17 37 19 38 25 18 8 -27 24
-30 25 -5 2 25 2 24 -5 65 -6 30 -4 37 9 37 8 0 15 7 15 15 0 8 -2 15 -5 15
-3 0 -5 -4 -5 -10z m-18 -82 c5 -28 4 -29 -9 -13 -15 21 -17 45 -4 45 5 0 11
-14 13 -32z"/>
<path d="M4361 6813 c-23 -80 -7 -102 33 -45 26 38 34 72 17 72 -5 0 -16 3
-24 6 -11 4 -19 -5 -26 -33z"/>
<path d="M5050 6810 l0 -41 24 18 c26 20 22 55 -8 61 -13 3 -16 -5 -16 -38z"/>
<path d="M5092 6760 c-14 -22 -6 -25 33 -10 14 5 23 14 20 20 -10 17 -39 11
-53 -10z"/>
<path d="M2784 6739 c-5 -8 -14 -24 -21 -37 -12 -23 -12 -23 19 -17 29 7 30 6
26 -19 -3 -15 0 -31 8 -37 8 -6 14 -18 14 -25 0 -14 -17 -19 -60 -15 -24 2
-24 2 -7 -16 22 -22 172 -32 207 -13 30 16 18 24 -36 21 -52 -2 -74 11 -74 45
0 14 -13 35 -30 51 -17 15 -29 32 -26 38 2 7 1 18 -4 24 -6 11 -9 10 -16 0z"/>
<path d="M3920 6583 l-35 -5 34 -14 c44 -19 51 -18 51 6 0 11 -3 19 -7 18 -5
0 -24 -3 -43 -5z"/>
<path d="M4360 6575 c0 -8 8 -11 20 -8 11 3 20 7 20 8 0 1 -9 5 -20 8 -12 3
-20 0 -20 -8z"/>
<path d="M4428 6583 c7 -3 16 -2 19 1 4 3 -2 6 -13 5 -11 0 -14 -3 -6 -6z"/>
<path d="M1985 6554 c-28 -44 -7 -64 53 -48 27 8 29 35 4 57 -25 23 -37 21
-57 -9z"/>
<path d="M3020 6568 c0 -4 28 -8 62 -8 34 0 59 3 55 6 -9 9 -117 11 -117 2z"/>
<path d="M3225 6570 c3 -5 12 -10 20 -10 8 0 17 5 20 10 4 6 -5 10 -20 10 -15
0 -24 -4 -20 -10z"/>
<path d="M3370 6570 l-45 -7 55 -1 c30 0 64 3 75 8 17 7 15 8 -10 8 -16 -1
-50 -4 -75 -8z"/>
<path d="M3575 6570 c-3 -5 1 -10 9 -10 9 0 16 5 16 10 0 6 -4 10 -9 10 -6 0
-13 -4 -16 -10z"/>
<path d="M4228 6563 c7 -3 16 -2 19 1 4 3 -2 6 -13 5 -11 0 -14 -3 -6 -6z"/>
<path d="M1867 6536 c-8 -20 13 -36 45 -36 33 0 38 24 9 40 -27 14 -48 13 -54
-4z"/>
<path d="M2307 6461 l-49 -6 24 -21 c13 -12 39 -22 62 -23 52 -3 75 -16 82
-49 3 -15 7 -32 9 -38 3 -10 98 -18 350 -30 50 -2 97 0 105 5 19 13 13 18 -35
25 -54 7 -53 7 -25 16 15 5 -50 8 -157 9 l-182 1 -3 58 -3 57 -65 1 c-36 1
-87 -2 -113 -5z"/>
<path d="M3010 6351 c-39 -7 -28 -14 41 -25 21 -4 42 -13 49 -21 18 -21 172
-20 251 2 54 15 59 18 43 30 -11 8 -47 13 -96 13 -63 0 -78 -3 -78 -15 0 -8
-4 -15 -10 -15 -5 0 -10 5 -10 10 0 6 -7 10 -15 10 -8 0 -14 -5 -12 -12 4 -22
-34 -21 -40 1 -4 15 -13 21 -33 21 -16 0 -34 2 -42 4 -7 2 -29 0 -48 -3z"/>
<path d="M3440 6340 c0 -5 6 -10 14 -10 8 0 18 5 21 10 3 6 -3 10 -14 10 -12
0 -21 -4 -21 -10z"/>
<path d="M2908 6333 c6 -2 18 -2 25 0 6 3 1 5 -13 5 -14 0 -19 -2 -12 -5z"/>
<path d="M4032 6313 c3 -24 8 -28 33 -28 25 0 30 4 33 28 3 25 1 27 -33 27
-34 0 -36 -2 -33 -27z"/>
<path d="M2937 6318 c-28 -10 -28 -28 -1 -28 18 0 48 27 37 33 -5 2 -20 0 -36
-5z"/>
<path d="M2430 6276 c0 -9 6 -16 13 -16 16 0 46 20 30 20 -6 0 -18 3 -27 6
-11 4 -16 1 -16 -10z"/>
<path d="M3000 6120 c0 -5 13 -10 29 -10 18 0 34 -8 44 -22 16 -23 16 -23 16
10 1 31 0 32 -44 32 -25 0 -45 -4 -45 -10z"/>
<path d="M1040 6110 c0 -5 4 -10 9 -10 6 0 13 5 16 10 3 6 -1 10 -9 10 -9 0
-16 -4 -16 -10z"/>
<path d="M2850 6092 c19 -8 66 -17 103 -20 68 -4 69 -4 58 17 -11 19 -20 21
-104 20 l-92 -1 35 -16z"/>
<path d="M4080 6085 c0 -25 14 -34 24 -16 8 12 -3 41 -15 41 -5 0 -9 -11 -9
-25z"/>
<path d="M4040 5880 c0 -43 2 -45 30 -30 14 7 23 6 34 -6 15 -14 16 -11 16 30
l0 46 -40 0 -40 0 0 -40z"/>
<path d="M1285 5791 c-6 -11 9 -23 19 -14 9 9 7 23 -3 23 -6 0 -12 -4 -16 -9z"/>
<path d="M6853 5685 c-15 -16 -18 -49 -4 -41 5 4 7 -35 4 -93 -5 -85 -3 -102
11 -116 9 -10 19 -15 21 -13 3 2 1 60 -5 127 -5 67 -6 129 -3 137 7 18 -8 18
-24 -1z m14 -132 c-3 -10 -5 -2 -5 17 0 19 2 27 5 18 2 -10 2 -26 0 -35z"/>
<path d="M6940 5443 c0 -5 11 -13 25 -20 20 -9 25 -8 25 2 0 7 -7 16 -16 19
-21 8 -34 8 -34 -1z"/>
<path d="M7010 5371 c0 -17 18 -21 24 -6 3 9 0 15 -9 15 -8 0 -15 -4 -15 -9z"/>
<path d="M6827 5274 c-4 -21 -23 -70 -43 -109 -30 -58 -34 -72 -24 -88 9 -16
9 -23 -4 -36 -13 -12 -20 -13 -35 -4 -15 10 -22 9 -35 -6 -9 -10 -16 -24 -16
-33 0 -14 44 -86 59 -98 4 -3 36 -43 71 -90 35 -47 80 -104 100 -126 19 -23
43 -52 52 -64 10 -13 20 -21 24 -17 13 13 33 136 35 219 2 75 -1 90 -20 113
-25 33 -26 53 -5 83 11 16 25 22 55 22 43 0 46 4 24 26 -22 23 -18 44 8 44 17
0 19 2 8 9 -9 6 -22 6 -34 0 -28 -16 -50 8 -44 47 4 22 1 37 -9 45 -24 20 -17
39 16 39 21 0 30 5 30 16 0 18 -25 46 -34 37 -8 -9 -8 -24 2 -20 4 1 7 -2 7
-7 0 -6 -30 -12 -67 -14 -63 -3 -69 -2 -91 24 l-24 27 -6 -39z m136 -68 c9 -7
17 -19 17 -27 -1 -11 -3 -11 -13 1 -7 9 -23 21 -37 27 -22 10 -22 12 -5 12 11
0 28 -6 38 -13z m10 -83 c-7 -2 -13 -11 -13 -19 0 -17 -5 -17 -33 -2 -22 12
-21 12 8 19 36 8 55 9 38 2z"/>
<path d="M7080 5229 c0 -18 2 -19 15 -9 8 7 15 16 15 21 0 5 -7 9 -15 9 -9 0
-15 -9 -15 -21z"/>
<path d="M7004 5218 c-5 -8 0 -9 15 -5 18 4 21 2 16 -11 -5 -13 -3 -14 6 -5 6
6 8 16 5 22 -9 14 -33 14 -42 -1z"/>
<path d="M3105 5071 c-3 -5 -1 -12 5 -16 5 -3 10 1 10 9 0 18 -6 21 -15 7z"/>
<path d="M3092 4971 l-24 -6 26 -30 c29 -34 43 -28 30 13 -7 23 -13 27 -32 23z"/>
<path d="M4090 4961 l-25 -7 4 -110 c2 -60 7 -117 12 -126 5 -10 5 -27 0 -40
-5 -13 -6 -74 -4 -135 6 -117 -9 -196 -44 -235 -14 -15 -15 -72 -8 -490 4
-260 8 -474 10 -476 2 -2 30 -4 62 -5 l58 -2 0 60 c0 33 -3 77 -5 97 -3 22 0
37 5 35 6 -1 9 -6 7 -11 -4 -12 27 -144 39 -168 8 -15 31 -17 195 -17 171 0
206 -3 193 -16 -3 -2 -89 -7 -193 -11 l-188 -7 7 -61 c3 -34 8 -73 11 -88 l6
-28 214 0 c143 0 214 3 214 11 0 31 -34 156 -47 171 -20 22 -7 42 21 33 11 -4
83 -8 159 -10 76 -2 141 -6 144 -9 4 -3 -58 -6 -136 -6 -114 0 -143 -3 -147
-14 -3 -8 8 -52 24 -98 34 -97 10 -89 249 -81 151 6 161 7 153 24 -17 31 -11
73 14 97 20 19 30 21 62 14 25 -5 40 -14 42 -26 3 -15 1 -16 -17 -4 -11 7 -23
10 -26 7 -7 -8 34 -102 49 -111 13 -9 366 -10 418 -2 l36 6 -35 65 c-19 35
-33 67 -29 70 3 4 6 1 6 -5 0 -6 6 -17 13 -24 22 -24 63 -83 70 -100 6 -17 27
-18 247 -18 254 0 267 3 220 45 -11 10 -18 20 -15 23 3 3 19 -11 36 -31 25
-29 39 -37 65 -37 19 0 34 -4 34 -10 0 -5 -4 -10 -10 -10 -24 0 -6 -39 43 -92
29 -31 64 -70 79 -87 l28 -31 255 0 c140 0 255 4 255 8 0 5 -42 51 -92 102
-85 86 -88 90 -33 47 33 -26 85 -72 115 -102 l55 -55 92 0 c81 0 94 2 103 20
6 10 35 53 65 96 55 76 60 94 26 94 -9 0 -22 5 -29 12 -9 9 -12 9 -12 -1 0 -7
-5 -9 -11 -5 -21 13 16 23 53 15 41 -10 50 -2 100 74 198 305 396 797 479
1190 40 189 49 240 48 265 -2 23 -2 22 -8 -5 -27 -121 -36 -155 -43 -155 -4 0
-8 -19 -9 -42 -1 -94 -16 -82 -23 19 -6 87 -10 102 -26 106 -11 3 -27 21 -37
41 -10 22 -24 36 -35 36 -10 0 -18 6 -18 14 0 9 -22 21 -55 31 -41 11 -59 22
-67 40 -10 23 -21 30 -41 26 -17 -3 -77 23 -78 34 -1 5 -2 17 -3 25 0 8 -11
16 -23 18 -17 3 -23 10 -23 29 0 20 -4 24 -19 20 -14 -3 -21 1 -23 15 -2 13
-17 25 -42 33 -21 8 -42 19 -46 25 -4 7 -28 9 -73 4 l-66 -7 -17 -43 c-9 -23
-22 -45 -30 -48 -10 -4 -14 -27 -14 -90 0 -55 -6 -100 -16 -126 -16 -39 -16
-40 10 -71 29 -34 31 -47 14 -83 -13 -30 -38 -40 -77 -31 -25 5 -32 1 -65 -43
-20 -27 -54 -66 -76 -86 -42 -38 -47 -66 -8 -45 32 17 116 6 141 -20 20 -19
22 -32 22 -134 0 -105 -1 -112 -20 -112 -18 0 -20 8 -23 100 -2 87 -5 102 -23
118 -28 23 -84 22 -108 -2 -22 -22 -37 -112 -27 -164 5 -24 2 -38 -8 -46 -29
-24 -36 -1 -36 115 0 63 -2 114 -4 114 -2 0 -39 -18 -81 -39 -174 -89 -367
-93 -542 -12 -34 17 -63 26 -63 20 0 -18 -65 -49 -102 -49 -50 0 -79 15 -106
54 -29 42 -29 106 -1 156 l22 38 -22 30 c-11 17 -21 37 -21 46 0 8 -7 36 -16
61 -8 26 -14 56 -12 68 2 16 7 10 16 -23 16 -53 39 -105 64 -141 16 -24 20
-26 55 -16 45 11 113 -11 113 -38 0 -14 -9 -15 -60 -9 -72 8 -76 0 -22 -54 62
-62 102 -88 192 -122 74 -29 100 -34 201 -38 130 -5 184 6 298 61 66 32 214
164 240 215 l12 22 -211 0 c-191 0 -211 -2 -217 -17 -9 -24 -23 -33 -54 -33
-58 0 -78 69 -33 113 25 25 26 25 59 10 19 -9 36 -23 37 -32 3 -14 24 -16 168
-13 235 4 265 8 279 39 10 22 9 29 -6 44 -18 18 -53 59 -118 139 -58 72 -59
73 -84 108 -13 19 -35 45 -48 58 l-25 25 -25 -26 c-14 -14 -34 -25 -43 -25
-22 0 -37 -18 -42 -50 -5 -40 -42 -34 -48 8 -7 45 -39 62 -94 50 -22 -5 -48
-16 -58 -24 -10 -10 -25 -13 -37 -9 -16 5 -24 -1 -37 -27 -9 -18 -22 -36 -28
-40 -22 -15 -55 -8 -73 16 l-18 24 -165 -41 c-164 -42 -164 -42 -171 -73 -10
-51 -16 -56 -50 -39 -16 9 -29 22 -29 30 0 19 -1 19 -101 -5 -46 -11 -95 -23
-109 -26 l-25 -6 26 -13 c64 -34 79 -117 30 -166 -34 -33 -74 -38 -126 -13
-30 14 -36 14 -64 -1 -17 -8 -31 -23 -31 -33 1 -9 20 -55 43 -102 36 -73 45
-85 65 -82 34 3 87 -25 101 -54 49 -109 -69 -213 -158 -138 -42 35 -49 81 -21
139 l22 45 -43 90 c-23 50 -46 90 -51 90 -5 0 -19 -7 -32 -15 -20 -13 -23 -22
-19 -53 4 -27 1 -42 -10 -51 -15 -12 -57 -7 -57 7 0 4 -4 13 -9 21 -7 11 -21
7 -70 -19 -65 -35 -68 -39 -49 -70 16 -26 3 -37 -20 -17 -25 22 -49 21 -62 -2
-17 -32 -12 -69 12 -85 20 -14 25 -14 45 -1 29 19 33 19 33 -3 0 -49 -76 -59
-115 -16 -29 31 -31 62 -10 107 11 24 33 40 84 65 38 18 96 51 129 72 33 22
79 49 101 61 23 11 41 27 41 33 0 21 -47 130 -58 134 -16 5 -122 -28 -122 -39
0 -5 -8 -12 -17 -16 -10 -3 -26 -13 -36 -22 -17 -14 -20 -14 -32 3 -10 12 -22
17 -37 13 -13 -3 -61 -15 -108 -27 -47 -12 -132 -33 -190 -47 -58 -14 -106
-26 -108 -28 -2 -2 2 -12 9 -23 15 -25 5 -52 -19 -52 -26 0 -44 23 -35 45 5
16 2 17 -27 12 -18 -4 -36 -7 -41 -7 -4 0 -9 -12 -11 -27 -4 -36 -35 -43 -58
-13 -22 29 -77 21 -82 -13 -2 -12 -12 -23 -23 -25 -11 -2 -27 -11 -37 -19 -12
-11 -18 -11 -24 -2 -4 7 0 17 9 24 25 18 16 53 -20 81 -55 42 -67 75 -65 191
2 93 0 103 -18 113 -23 12 -27 40 -5 40 12 0 14 20 14 110 0 121 0 121 -69
101z m3298 -149 c2 -7 -3 -12 -12 -12 -9 0 -16 7 -16 16 0 17 22 14 28 -4z
m37 -2 c-3 -5 -10 -10 -16 -10 -5 0 -9 5 -9 10 0 6 7 10 16 10 8 0 12 -4 9
-10z m-1305 -116 c0 -17 -7 -25 -24 -30 -32 -8 -46 2 -46 32 0 16 8 27 23 33
28 11 47 -4 47 -35z m317 -86 c-3 -7 -5 -2 -5 12 0 14 2 19 5 13 2 -7 2 -19 0
-25z m-1528 -152 c4 -23 -24 -47 -45 -39 -8 3 -14 18 -14 35 0 26 3 29 27 26
18 -2 29 -10 32 -22z m2611 14 c0 -5 -4 -10 -9 -10 -6 0 -13 5 -16 10 -3 6 1
10 9 10 9 0 16 -4 16 -10z m-2353 -16 c8 -21 -13 -42 -28 -27 -13 13 -5 43 11
43 6 0 13 -7 17 -16z m-273 -90 c23 -9 20 -41 -4 -49 -25 -8 -40 1 -40 24 0
29 14 37 44 25z m126 -24 c0 -11 -4 -20 -10 -20 -5 0 -10 9 -10 20 0 11 5 20
10 20 6 0 10 -9 10 -20z m-402 -103 c4 -20 -25 -34 -40 -19 -15 15 -1 44 19
40 10 -2 19 -11 21 -21z m126 -5 c13 -25 13 -32 -1 -60 -17 -34 -42 -47 -77
-38 -19 5 -39 -10 -115 -89 -50 -52 -91 -100 -91 -107 0 -13 162 -134 319
-240 78 -52 88 -57 126 -51 37 5 44 2 63 -22 38 -49 23 -97 -36 -112 -44 -11
-76 15 -80 65 -2 23 -7 42 -11 42 -7 0 -192 118 -216 137 -5 5 -48 37 -93 72
-67 50 -89 61 -108 57 -36 -9 -64 10 -64 42 0 35 16 52 50 52 36 0 49 17 43
55 -4 25 -1 34 13 39 12 4 23 1 29 -8 10 -13 20 -7 68 37 45 41 57 58 57 81 0
70 94 106 124 48z m91 8 c3 -6 -1 -13 -10 -16 -19 -8 -30 0 -20 15 8 14 22 14
30 1z m-347 -26 c2 -11 -4 -26 -12 -33 -31 -26 -71 14 -45 45 17 21 53 14 57
-12z m-158 -13 c0 -26 -14 -41 -40 -41 -5 0 -14 9 -20 21 -14 26 3 49 36 49
20 0 24 -5 24 -29z m-120 4 c18 -22 3 -55 -26 -55 -13 0 -24 2 -24 4 0 2 -3
11 -6 19 -5 14 19 47 35 47 5 0 14 -7 21 -15z m-75 -15 c8 -26 -1 -40 -26 -40
-22 0 -34 22 -25 45 8 22 44 18 51 -5z m1787 -107 c9 -10 25 -37 37 -60 12
-24 23 -43 26 -43 2 0 19 27 37 60 25 45 39 60 55 60 12 0 24 -3 27 -8 2 -4
-15 -39 -40 -77 -24 -39 -44 -76 -44 -83 0 -7 18 -42 40 -78 48 -79 52 -98 23
-102 -18 -3 -27 7 -47 45 -49 97 -48 96 -100 15 -25 -40 -50 -72 -55 -72 -5 0
-14 6 -20 14 -9 11 -1 30 39 90 27 41 50 80 50 86 0 6 -18 40 -41 75 -39 63
-45 95 -16 95 8 0 21 -8 29 -17z m-222 -134 c0 -11 -10 -21 -24 -25 -18 -4
-26 -15 -31 -42 -14 -75 -46 -108 -110 -114 -21 -2 -31 -9 -33 -23 -8 -54 -13
-65 -32 -65 -25 0 -25 18 -1 135 17 82 18 90 3 101 -14 10 -14 14 -3 28 15 18
42 21 57 6 8 -8 14 -7 22 3 8 10 34 14 82 14 61 0 70 -2 70 -18z m-1430 -148
c0 -6 -4 -13 -10 -16 -5 -3 -10 1 -10 9 0 9 5 16 10 16 6 0 10 -4 10 -9z
m1564 1 c2 -4 1 -14 -4 -21 -11 -19 -41 -6 -34 14 6 16 29 20 38 7z m-1729
-27 c0 -21 -31 -33 -46 -18 -5 5 -7 17 -3 27 9 24 49 17 49 -9z m13 -84 c8 -4
12 -19 10 -32 -4 -30 -51 -35 -56 -6 -8 39 15 58 46 38z m1369 -43 c8 -12 10
-60 5 -169 l-2 -47 -66 -1 c-79 -1 -116 16 -135 61 -21 51 -10 97 34 146 17
19 31 22 88 22 42 0 70 -5 76 -12z m-1217 -83 c0 -18 -5 -25 -20 -25 -20 0
-28 28 -13 43 15 16 33 6 33 -18z m730 -140 c0 -2 -7 -11 -16 -20 -12 -12 -19
-13 -30 -4 -30 25 -7 55 29 37 9 -5 17 -10 17 -13z m-650 -50 c0 -18 -15 -26
-34 -19 -12 5 -13 10 -6 25 11 20 40 16 40 -6z m770 -67 c-25 -9 -80 10 -62
21 7 4 28 3 47 -3 30 -9 32 -12 15 -18z m440 12 c0 -5 -4 -10 -9 -10 -6 0 -13
5 -16 10 -3 6 1 10 9 10 9 0 16 -4 16 -10z m1194 -214 c9 3 16 1 16 -4 0 -7
-23 -10 -60 -9 -40 1 -54 4 -40 9 11 4 20 12 20 18 0 6 10 4 24 -5 13 -8 31
-13 40 -9z m-114 -8 c0 -4 -81 -8 -181 -8 -117 0 -178 3 -174 10 7 12 355 10
355 -2z m340 2 c16 -6 6 -7 -30 -3 -30 3 -57 7 -59 9 -8 7 64 2 89 -6z m140
-2 c0 -4 -12 -8 -27 -8 -19 0 -24 3 -15 8 17 11 42 11 42 0z"/>
<path d="M5553 3908 c-12 -13 -24 -40 -28 -60 -7 -36 -6 -38 18 -38 34 0 57
34 57 82 0 44 -16 49 -47 16z"/>
<path d="M5353 3594 c-21 -21 -24 -32 -19 -62 6 -41 28 -62 62 -62 37 0 54 26
54 85 0 46 -3 53 -22 59 -38 10 -48 7 -75 -20z"/>
<path d="M6590 4945 c-16 -29 -7 -43 15 -25 16 13 21 50 7 50 -5 0 -15 -11
-22 -25z"/>
<path d="M7390 4901 c0 -6 5 -13 12 -17 6 -4 8 -3 4 4 -3 5 0 13 6 15 8 3 6 6
-4 6 -10 1 -18 -3 -18 -8z"/>
<path d="M7892 4780 c0 -14 2 -19 5 -12 2 6 2 18 0 25 -3 6 -5 1 -5 -13z"/>
<path d="M7882 4700 c0 -19 2 -27 5 -17 2 9 2 25 0 35 -3 9 -5 1 -5 -18z"/>
<path d="M5336 4616 c-27 -7 -51 -17 -54 -24 -5 -16 40 -122 51 -122 4 0 21 7
37 15 25 13 30 22 30 51 0 19 7 48 15 64 15 29 15 30 -7 29 -13 -1 -45 -7 -72
-13z"/>
<path d="M5901 4357 c-16 -16 -13 -89 4 -114 19 -28 68 -38 106 -23 37 16 37
31 0 53 -15 9 -44 34 -64 56 -25 28 -38 36 -46 28z"/>
<path d="M3930 4261 c0 -6 5 -13 10 -16 6 -3 10 -15 10 -26 0 -14 -7 -19 -26
-19 -23 0 -26 3 -22 25 6 29 -4 31 -63 13 -23 -6 -39 -17 -39 -26 0 -42 -49
-59 -75 -25 -13 17 -85 -2 -85 -23 0 -29 -64 -37 -81 -11 -4 5 -12 6 -19 2 -7
-5 -31 -10 -53 -12 -64 -5 -74 -16 -39 -42 31 -22 102 -137 102 -166 0 -8 9
-33 20 -54 10 -21 17 -41 14 -43 -2 -3 5 -33 16 -68 11 -34 20 -68 20 -75 0
-7 7 -18 15 -25 12 -10 15 -9 16 6 0 18 1 18 8 -1 5 -11 4 -25 -1 -32 -6 -8
-4 -22 8 -42 22 -38 44 -48 44 -21 0 11 7 20 15 20 9 0 15 -9 15 -24 0 -18 8
-27 30 -35 17 -5 30 -7 30 -4 0 3 6 1 13 -5 7 -5 33 -7 65 -3 28 4 52 4 52 -1
0 -8 -70 -13 -129 -9 -31 2 -33 1 -27 -24 5 -18 2 -27 -8 -31 -8 -3 -12 -12
-10 -19 3 -7 1 -16 -5 -20 -15 -9 -14 -25 2 -25 8 0 22 -9 31 -19 13 -15 14
-20 4 -25 -7 -3 2 -3 20 0 17 3 32 1 32 -4 0 -5 28 -9 63 -8 l62 1 3 463 c2
457 2 462 -18 462 -11 0 -20 -4 -20 -9z m-196 -165 c21 8 56 -22 56 -47 0 -10
-8 -22 -17 -27 -23 -12 -63 3 -63 23 0 9 -9 15 -25 15 -20 0 -25 5 -25 24 0
29 19 38 41 19 9 -7 24 -11 33 -7z m-28 -172 c16 -4 19 -12 16 -35 -3 -22 -9
-29 -27 -29 -37 0 -69 42 -48 63 8 8 31 9 59 1z m84 -149 c0 -14 -7 -25 -19
-28 -24 -6 -31 0 -31 28 0 28 7 34 31 28 12 -3 19 -14 19 -28z m-84 -76 c4 -7
10 -7 16 -1 17 17 58 1 64 -25 7 -24 -18 -63 -40 -63 -18 0 -52 43 -60 73 -6
27 6 38 20 16z m122 -261 c6 -7 8 -26 5 -41 -6 -28 -6 -28 -24 -8 -11 11 -19
29 -19 41 0 22 22 27 38 8z"/>
<path d="M3271 4055 c-8 -27 -14 -93 -15 -145 -1 -52 -6 -107 -10 -122 -5 -17
-4 -28 2 -28 5 0 12 9 15 20 5 20 37 29 37 9 0 -5 5 -7 10 -4 6 3 10 14 10 25
0 10 7 21 16 24 26 10 46 -14 42 -51 -2 -22 3 -37 12 -43 13 -8 12 -11 -3 -22
-9 -7 -19 -28 -21 -45 -4 -27 -1 -33 15 -33 10 0 36 -9 56 -20 l38 -20 -38 0
c-30 0 -37 -4 -37 -19 0 -13 10 -20 31 -25 50 -10 91 -7 83 5 -5 8 -1 8 14 0
22 -12 102 -12 102 -1 0 4 -6 13 -13 19 -8 6 -19 29 -26 51 -7 23 -19 44 -27
47 -9 3 -14 19 -14 43 0 35 -2 38 -25 36 -13 -2 -24 0 -23 3 3 26 -4 61 -11
57 -11 -7 -21 29 -20 74 1 23 3 27 6 13 8 -40 26 -26 20 16 -6 47 -36 113 -48
105 -5 -3 -9 0 -9 6 0 12 -39 49 -53 50 -4 0 4 -11 18 -24 16 -15 22 -27 15
-31 -16 -10 -12 -25 8 -25 14 0 17 -10 19 -53 1 -28 -4 -77 -11 -107 l-12 -55
-11 32 c-9 25 -20 34 -52 43 -34 9 -41 15 -46 43 -4 18 -5 37 -4 42 2 6 -5 27
-14 49 -21 47 -21 46 -2 46 8 0 15 5 15 10 0 6 -4 10 -9 10 -5 0 -11 10 -13
23 -3 16 -8 8 -17 -28z m183 -250 c-4 -8 -8 -15 -10 -15 -2 0 -4 7 -4 15 0 8
4 15 10 15 5 0 7 -7 4 -15z m34 -107 c-2 -28 -18 -35 -52 -22 -21 8 -20 49 2
73 17 18 17 17 34 -3 10 -12 17 -33 16 -48z"/>
<path d="M3190 4050 c-7 -16 -16 -30 -20 -30 -4 0 -6 -31 -6 -70 1 -38 2 -70
4 -70 2 0 11 7 19 16 11 11 13 18 5 23 -7 4 -8 12 -2 21 8 13 10 12 10 -2 0
-10 7 -18 15 -18 12 0 15 16 15 80 0 61 -3 80 -14 80 -7 0 -19 -13 -26 -30z"/>
<path d="M3102 4048 c-14 -14 -16 -42 -3 -34 7 5 23 46 17 46 -1 0 -7 -5 -14
-12z"/>
<path d="M2915 4000 c3 -5 11 -10 16 -10 6 0 7 5 4 10 -3 6 -11 10 -16 10 -6
0 -7 -4 -4 -10z"/>
<path d="M2847 3981 c-18 -6 -18 -7 0 -23 19 -17 21 -18 51 -18 13 0 14 -2 3
-9 -11 -7 -11 -9 0 -14 10 -4 9 -6 -3 -6 -10 -1 -18 -6 -18 -12 0 -5 13 -2 30
7 32 19 29 29 -15 66 -22 19 -23 20 -48 9z"/>
<path d="M2960 3930 c0 -11 4 -20 8 -20 4 0 8 9 9 20 1 11 -2 20 -8 20 -5 0
-9 -9 -9 -20z"/>
<path d="M3418 3923 c7 -3 16 -2 19 1 4 3 -2 6 -13 5 -11 0 -14 -3 -6 -6z"/>
<path d="M2990 3890 c0 -5 5 -10 10 -10 6 0 10 5 10 10 0 6 -4 10 -10 10 -5 0
-10 -4 -10 -10z"/>
<path d="M3300 3739 c-9 -15 -15 -18 -23 -10 -6 6 -21 11 -34 11 -17 0 -23 -6
-23 -21 0 -18 5 -21 30 -17 22 3 30 1 31 -11 0 -13 2 -12 8 2 4 10 11 18 16
17 13 -2 26 38 15 45 -5 3 -14 -4 -20 -16z"/>
<path d="M3258 3663 c-24 -6 -23 -39 2 -46 23 -6 45 16 36 38 -6 15 -8 16 -38
8z"/>
<path d="M3230 3585 c0 -8 9 -15 20 -15 11 0 20 7 20 15 0 8 -9 15 -20 15 -11
0 -20 -7 -20 -15z"/>
<path d="M3498 3513 c17 -2 47 -2 65 0 17 2 3 4 -33 4 -36 0 -50 -2 -32 -4z"/>
<path d="M3608 3513 c7 -3 16 -2 19 1 4 3 -2 6 -13 5 -11 0 -14 -3 -6 -6z"/>
<path d="M3583 3443 c-26 -5 -30 -18 -8 -27 9 -3 24 3 35 14 20 20 16 21 -27
13z"/>
<path d="M3648 3432 c-30 -4 -39 -22 -10 -22 18 0 50 17 42 22 -3 2 -17 2 -32
0z"/>
<path d="M3756 3371 c-4 -7 -5 -15 -2 -18 9 -9 19 4 14 18 -4 11 -6 11 -12 0z"/>
<path d="M3861 3290 c-18 -4 -50 -6 -70 -4 -36 3 -37 3 -39 -34 -2 -20 -5 -45
-8 -55 -8 -26 13 -46 57 -53 22 -4 39 -11 39 -16 0 -5 30 -8 68 -7 l67 3 -3
83 c-3 70 -6 83 -20 83 -9 0 -26 2 -37 4 -11 3 -35 1 -54 -4z m66 -152 c-3 -8
-6 -5 -6 6 -1 11 2 17 5 13 3 -3 4 -12 1 -19z"/>
<path d="M4037 3293 c-13 -13 -7 -53 8 -53 8 0 15 -7 15 -16 0 -8 -7 -22 -15
-30 -8 -9 -15 -29 -15 -45 l0 -29 73 0 72 0 -3 78 c-2 42 -5 83 -7 90 -5 13
-116 18 -128 5z"/>
<path d="M3676 3277 c3 -10 9 -15 12 -12 3 3 0 11 -7 18 -10 9 -11 8 -5 -6z"/>
<path d="M5104 3195 c-7 -18 26 -75 43 -75 16 0 16 5 1 46 -13 37 -36 52 -44
29z"/>
<path d="M5730 3077 c0 -7 28 -55 61 -106 l62 -92 253 3 c140 1 254 6 254 10
0 10 -138 180 -153 190 -6 4 -116 7 -244 8 -190 0 -233 -2 -233 -13z"/>
<path d="M4450 3073 c-126 -2 -207 -7 -210 -14 -10 -16 16 -150 31 -159 7 -5
114 -9 237 -10 l224 -1 -7 23 c-3 13 -14 50 -23 83 -18 64 -29 86 -40 83 -4
-2 -99 -4 -212 -5z m10 -53 c0 -13 -7 -20 -20 -20 -13 0 -20 7 -20 20 0 13 7
20 20 20 13 0 20 -7 20 -20z m110 -10 c0 -5 -5 -10 -11 -10 -5 0 -7 5 -4 10 3
6 8 10 11 10 2 0 4 -4 4 -10z"/>
<path d="M4725 3070 c-3 -6 6 -48 21 -95 l28 -85 243 0 c152 0 243 4 243 10 0
5 -18 48 -39 95 l-40 85 -225 0 c-139 0 -227 -4 -231 -10z"/>
<path d="M5220 3075 c0 -8 81 -170 89 -178 11 -11 495 -11 498 0 2 5 -10 27
-27 48 -16 21 -30 42 -30 47 0 6 -12 27 -27 49 l-28 39 -237 0 c-131 0 -238
-2 -238 -5z"/>
<path d="M3970 3060 c-20 -4 -26 -8 -14 -9 12 0 26 -12 32 -26 10 -21 19 -25
52 -25 35 0 40 3 40 23 1 22 1 22 15 -3 21 -37 18 -59 -7 -64 -13 -3 -32 -7
-43 -9 -11 -3 8 -5 42 -6 34 0 68 -4 77 -7 22 -8 20 -27 -1 -20 -10 3 -34 1
-53 -3 -31 -8 -29 -9 28 -10 60 -1 62 0 62 24 0 14 -4 25 -8 25 -4 0 -6 16 -4
35 2 19 1 46 -2 60 -6 24 -8 25 -94 24 -48 -1 -103 -5 -122 -9z"/>
<path d="M6457 2848 c-12 -8 -9 -13 76 -110 l59 -68 188 0 188 0 41 46 c23 26
41 50 41 53 0 4 -18 25 -40 46 l-40 39 -251 1 c-138 0 -256 -3 -262 -7z"/>
<path d="M7010 2848 c0 -7 16 -23 34 -35 l34 -22 14 22 c31 48 32 47 -26 47
-38 0 -56 -4 -56 -12z"/>
<path d="M4923 2843 c-141 -4 -137 1 -101 -100 l22 -63 258 0 c142 0 258 2
258 4 0 4 -31 78 -56 134 l-15 32 -122 -2 c-67 -1 -177 -4 -244 -5z"/>
<path d="M5338 2844 c-3 -3 2 -22 12 -42 9 -20 25 -54 35 -75 10 -21 28 -42
39 -46 15 -5 471 -6 524 -1 2 0 -10 19 -26 43 -16 23 -41 61 -56 85 l-26 42
-248 0 c-137 0 -251 -2 -254 -6z m284 -26 c8 -21 -2 -38 -23 -38 -19 0 -27 29
-12 43 11 11 31 8 35 -5z"/>
<path d="M5880 2844 c0 -3 25 -44 55 -90 l56 -84 274 0 c151 0 275 3 275 8 0
4 -12 21 -26 37 -15 17 -44 54 -66 83 l-40 52 -264 0 c-145 0 -264 -3 -264 -6z"/>
<path d="M4273 2810 c4 -18 7 -45 7 -61 0 -49 20 -32 21 19 1 26 4 37 6 25 4
-20 11 -23 54 -23 37 0 54 -5 72 -22 l22 -23 -50 -5 c-43 -5 -37 -6 50 -13 55
-4 102 -12 103 -17 2 -6 54 -10 119 -10 88 0 114 3 110 13 -6 17 -25 76 -35
112 l-9 30 -94 0 c-52 0 -148 -2 -214 -4 -66 -3 -131 -1 -144 4 -23 8 -24 7
-18 -25z m174 -7 c-20 -2 -52 -2 -70 0 -17 2 0 4 38 4 39 0 53 -2 32 -4z m113
-89 c0 -2 -18 -4 -40 -4 -22 0 -40 3 -40 8 0 4 18 6 40 4 22 -2 40 -6 40 -8z"/>
<path d="M4173 2803 c9 -2 23 -2 30 0 6 3 -1 5 -18 5 -16 0 -22 -2 -12 -5z"/>
<path d="M4206 2705 c4 -8 8 -15 10 -15 2 0 4 7 4 15 0 8 -4 15 -10 15 -5 0
-7 -7 -4 -15z"/>
<path d="M5473 2632 c-13 -2 -23 -5 -23 -8 0 -7 83 -145 90 -149 14 -8 580
-16 580 -8 0 5 -16 26 -35 48 -20 21 -49 56 -65 79 l-30 40 -248 1 c-136 0
-257 -1 -269 -3z"/>
<path d="M6030 2634 c0 -8 38 -54 99 -119 l46 -50 288 -2 c170 -1 287 2 287 7
0 5 -37 46 -82 90 l-82 80 -278 0 c-153 0 -278 -3 -278 -6z"/>
<path d="M6640 2633 c0 -4 35 -40 77 -81 l77 -73 64 63 c104 103 107 98 -68
98 -82 0 -150 -3 -150 -7z"/>
<path d="M4600 2620 c-86 -4 -104 -7 -57 -8 44 -1 74 -7 83 -16 12 -13 9 -15
-23 -19 -21 -2 20 -4 90 -5 l128 -2 -3 28 c-4 32 -11 32 -218 22z"/>
<path d="M4875 2621 c-3 -5 5 -40 18 -78 l24 -68 281 -3 c155 -1 282 1 282 5
-1 5 -18 40 -40 78 l-38 70 -261 3 c-157 1 -262 -1 -266 -7z"/>
<path d="M4660 2539 c0 -11 -3 -18 -7 -16 -5 3 -16 -6 -26 -19 -17 -23 -17
-24 3 -24 11 0 20 6 20 13 0 9 2 9 9 -1 5 -9 41 -15 105 -19 84 -5 96 -4 96
10 0 17 -33 40 -43 31 -3 -3 -3 -13 0 -22 4 -14 3 -14 -5 -3 -8 11 -17 11 -40
3 l-30 -10 2 39 1 39 -42 0 c-37 0 -43 -3 -43 -21z"/>
<path d="M4870 2415 c0 -5 5 -17 10 -25 5 -8 10 -10 10 -5 0 6 -5 17 -10 25
-5 8 -10 11 -10 5z"/>
<path d="M5158 2413 c-140 -2 -208 -7 -208 -14 0 -6 7 -23 15 -37 8 -15 25
-60 38 -100 l22 -72 318 -3 c174 -1 317 -1 317 1 0 2 -13 23 -30 47 -16 24
-35 54 -40 67 -6 13 -23 43 -38 68 l-28 45 -80 0 c-43 1 -172 -1 -286 -2z
m-155 -73 c3 -11 1 -20 -4 -20 -5 0 -9 9 -9 20 0 11 2 20 4 20 2 0 6 -9 9 -20z"/>
<path d="M5580 2412 c0 -8 41 -75 81 -134 11 -15 19 -30 19 -34 0 -3 9 -19 21
-35 l20 -29 320 0 c175 0 319 3 319 8 0 7 -117 150 -166 205 l-26 27 -294 0
c-162 0 -294 -4 -294 -8z"/>
<path d="M6220 2411 c0 -5 3 -11 8 -13 4 -1 34 -34 67 -73 33 -38 62 -72 65
-75 4 -3 19 -22 34 -42 16 -21 34 -38 40 -38 15 0 151 108 236 188 l65 61
-257 1 c-150 0 -258 -4 -258 -9z"/>
<path d="M4891 2349 c0 -13 4 -33 9 -44 7 -14 8 -8 3 20 -7 46 -13 59 -12 24z"/>
<path d="M4910 2253 c0 -15 19 -37 26 -31 3 4 -1 14 -10 23 -9 9 -16 13 -16 8z"/>
<path d="M4818 2203 c12 -2 32 -2 45 0 12 2 2 4 -23 4 -25 0 -35 -2 -22 -4z"/>
<path d="M4900 2202 c0 -5 14 -9 30 -9 17 0 30 4 30 9 0 4 -13 8 -30 8 -16 0
-30 -4 -30 -8z"/>
<path d="M5763 2127 c-2 -4 14 -35 36 -68 23 -34 41 -65 41 -70 0 -5 3 -9 8
-9 4 0 12 -10 17 -22 9 -22 17 -23 125 -26 l116 -3 135 90 c75 50 142 97 148
105 11 14 -24 15 -304 13 -174 -1 -319 -5 -322 -10z"/>
<path d="M4965 2120 c3 -5 11 -10 16 -10 6 0 7 5 4 10 -3 6 -11 10 -16 10 -6
0 -7 -4 -4 -10z"/>
<path d="M5064 2114 c3 -8 6 -21 6 -28 0 -7 7 -13 15 -13 11 0 12 4 4 13 -6 7
-8 17 -5 23 3 5 -1 12 -10 15 -12 5 -15 2 -10 -10z"/>
<path d="M5135 2120 c-27 -5 6 -8 100 -9 153 -3 230 -18 110 -22 -51 -2 -58
-4 -27 -6 23 -2 42 -6 42 -9 0 -3 -14 -20 -32 -37 l-32 -32 35 -6 c34 -6 34
-6 -8 -8 -32 -1 -43 3 -43 14 0 11 -11 15 -40 15 -33 0 -40 -3 -40 -19 0 -15
8 -21 38 -24 20 -2 17 -3 -8 -1 -102 9 -117 14 -129 47 l-11 32 6 -30 c3 -16
10 -42 17 -57 l12 -28 145 -2 c80 -1 233 -3 341 -3 l196 -2 -23 41 c-12 23
-36 66 -52 96 l-31 55 -263 1 c-145 1 -281 -2 -303 -6z m42 -166 c-3 -3 -12
-4 -19 -1 -8 3 -5 6 6 6 11 1 17 -2 13 -5z m146 -1 c-24 -2 -62 -2 -85 0 -24
2 -5 4 42 4 47 0 66 -2 43 -4z"/>
<path d="M4990 2090 c0 -5 5 -10 11 -10 5 0 7 5 4 10 -3 6 -8 10 -11 10 -2 0
-4 -4 -4 -10z"/>
<path d="M5158 2083 c12 -2 30 -2 40 0 9 3 -1 5 -23 4 -22 0 -30 -2 -17 -4z"/>
<path d="M5248 2083 c7 -3 16 -2 19 1 4 3 -2 6 -13 5 -11 0 -14 -3 -6 -6z"/>
<path d="M5640 1870 l-45 -6 28 -12 c16 -7 37 -12 47 -12 22 0 55 -54 46 -75
-3 -8 3 -16 12 -18 12 -3 11 -5 -5 -6 -22 -1 -34 -21 -12 -21 19 0 50 21 44
30 -3 6 1 7 9 4 8 -3 39 6 70 20 l56 26 -16 25 c-9 14 -21 22 -26 19 -6 -4 -8
2 -3 15 6 20 4 21 -77 19 -46 0 -103 -4 -128 -8z m205 -60 c-3 -5 -12 -10 -18
-10 -7 0 -6 4 3 10 19 12 23 12 15 0z m-70 -20 c3 -5 1 -10 -4 -10 -6 0 -11 5
-11 10 0 6 2 10 4 10 3 0 8 -4 11 -10z"/>
<path d="M5920 1867 c0 -30 21 -35 56 -15 19 11 34 22 34 24 0 2 -20 4 -45 4
-30 0 -45 -4 -45 -13z"/>
<path d="M5665 1753 c17 -14 14 -43 -5 -43 -10 0 -21 -7 -24 -16 -4 -10 -2
-14 6 -10 7 3 21 9 30 12 21 7 19 56 -2 61 -9 3 -11 1 -5 -4z"/>
<path d="M5540 1665 c7 -9 15 -13 17 -11 7 7 -7 26 -19 26 -6 0 -6 -6 2 -15z"/>
<path d="M5598 1673 c7 -3 16 -2 19 1 4 3 -2 6 -13 5 -11 0 -14 -3 -6 -6z"/>
<path d="M5448 1613 c7 -3 16 -2 19 1 4 3 -2 6 -13 5 -11 0 -14 -3 -6 -6z"/>
</g>
</svg>
